<svg version="1.2" xmlns="http://www.w3.org/2000/svg" viewBox="0 0 1000 424" width="90" height="38">
	<title>download-from-windows-store-icon-seeklogo</title>
	<defs>
		<clipPath clipPathUnits="userSpaceOnUse" id="cp1">
			<path d="m901.01 320.28v-204.8h-788.48v204.8"/>
		</clipPath>
		<clipPath clipPathUnits="userSpaceOnUse" id="cp2">
			<path d="m901.01 320.28v-204.8h-788.48v204.8"/>
		</clipPath>
	</defs>
	<style>
		tspan { white-space:pre } 
		.t0 { font-size: 7px;fill: #ffffff;font-family: "Segoe Pro" } 
		.s1 { fill: #128744 } 
		.s2 { fill: #fefefe } 
		.s3 { fill: #050405 } 
	</style>
	<g id="图层 1">
		<g id="&lt;Group&gt;">
			<text id="Do
" style="transform: matrix(8,0,0,8,321.591,195.314)" >
				<tspan x="0" y="0" class="t0" dx="0" >D</tspan><tspan  y="0" class="t0">o
</tspan>
			</text>
			<text id="w
" style="transform: matrix(8,0,0,8,392.427,195.314)" >
				<tspan x="0" y="0" class="t0">w
</tspan>
			</text>
			<text id="n
" style="transform: matrix(8,0,0,8,434.407,195.314)" >
				<tspan x="0" y="0" class="t0">n
</tspan>
			</text>
			<text id="lo
" style="transform: matrix(8,0,0,8,466.673,195.314)" >
				<tspan x="0" y="0" class="t0" dx="0" >l</tspan><tspan  y="0" class="t0">o
</tspan>
			</text>
			<text id="a
" style="transform: matrix(8,0,0,8,512.657,195.314)" >
				<tspan x="0" y="0" class="t0">a
</tspan>
			</text>
			<text id="d
" style="transform: matrix(8,0,0,8,541.036,195.314)" >
				<tspan x="0" y="0" class="t0">d
</tspan>
			</text>
			<text id=" 
" style="transform: matrix(8,0,0,8,574.247,195.314)" >
				<tspan x="0" y="0" class="t0"> 
</tspan>
			</text>
			<text id="f
" style="transform: matrix(8,0,0,8,585.552,195.314)" >
				<tspan x="0" y="0" class="t0">f
</tspan>
			</text>
			<text id="r
" style="transform: matrix(8,0,0,8,602.861,195.314)" >
				<tspan x="0" y="0" class="t0">r
</tspan>
			</text>
			<text id="om
" style="transform: matrix(8,0,0,8,620.997,195.314)" >
				<tspan x="0" y="0" class="t0" dx="0" >o</tspan><tspan  y="0" class="t0">m
</tspan>
			</text>
			<path id="&lt;Path&gt;" class="s1" d="m901 320.3v-204.8h-788.5v204.8"/>
			<g id="&lt;Clip Group&gt;" clip-path="url(#cp1)">
				<path id="&lt;Compound Path&gt;" fill-rule="evenodd" class="s2" d="m181.8 182.1v-19.8c0-16.7 10.1-19.3 20-21.5 18.3-4.2 22.3 5.4 22.4 18.2v14.6l-4.1 0.8v-15.7c0-6.8-1-17.4-17.5-13.6-11 2.6-16.9 6.1-16.8 17.6v18.6zm60.6-14.7v2.5l-4 0.9v-3.4c0-9.1 0.2-13.4-10.4-11.9q-0.2-2.2-0.6-4.1c12.8-1.9 15 1.9 15 16zm-26.7-13.2q0.4 1.7 0.4 4.2c-5.9 2.5-8.2 4.4-8.1 13.1v5.3l-4 0.8v-6.2c0-12.8 4.9-14.8 11.7-17.2zm69 24.7v109l-22.1 8.1-111.1-22.2v-80.8l111.1-22.2zm-50.6 54.3h-31.1v24.1l31.1 4.5zm-34.2-25.4l-24.6 3.5v18.8h24.6zm0 25.4h-24.6v20.5l24.6 3.4zm34.2-30.1l-31.1 4.6v22.4h31.1z"/>
			</g>
			<text id="Do
" style="transform: matrix(8,0,0,8,321.591,195.314)" >
				<tspan x="0" y="0" class="t0" dx="0" >D</tspan><tspan  y="0" class="t0">o
</tspan>
			</text>
			<text id="w
" style="transform: matrix(8,0,0,8,392.427,195.314)" >
				<tspan x="0" y="0" class="t0">w
</tspan>
			</text>
			<text id="n
" style="transform: matrix(8,0,0,8,434.407,195.314)" >
				<tspan x="0" y="0" class="t0">n
</tspan>
			</text>
			<text id="lo
" style="transform: matrix(8,0,0,8,466.673,195.314)" >
				<tspan x="0" y="0" class="t0" dx="0" >l</tspan><tspan  y="0" class="t0">o
</tspan>
			</text>
			<text id="a
" style="transform: matrix(8,0,0,8,512.657,195.314)" >
				<tspan x="0" y="0" class="t0">a
</tspan>
			</text>
			<text id="d
" style="transform: matrix(8,0,0,8,541.036,195.314)" >
				<tspan x="0" y="0" class="t0">d
</tspan>
			</text>
			<text id=" 
" style="transform: matrix(8,0,0,8,574.247,195.314)" >
				<tspan x="0" y="0" class="t0"> 
</tspan>
			</text>
			<text id="f
" style="transform: matrix(8,0,0,8,585.552,195.314)" >
				<tspan x="0" y="0" class="t0">f
</tspan>
			</text>
			<text id="r
" style="transform: matrix(8,0,0,8,602.861,195.314)" >
				<tspan x="0" y="0" class="t0">r
</tspan>
			</text>
			<text id="om
" style="transform: matrix(8,0,0,8,620.997,195.314)" >
				<tspan x="0" y="0" class="t0" dx="0" >o</tspan><tspan  y="0" class="t0">m
</tspan>
			</text>
			<path id="&lt;Path&gt;" class="s3" d="m901 320.3v-204.8h-788.5v204.8"/>
			<g id="&lt;Clip Group&gt;" clip-path="url(#cp2)">
				<path id="&lt;Compound Path&gt;" fill-rule="evenodd" class="s2" d="m181.8 182.1v-19.8c0-16.7 10.1-19.3 20-21.5 18.3-4.2 22.3 5.4 22.4 18.2v14.6l-4.1 0.8v-15.7c0-6.8-1-17.4-17.5-13.6-11 2.6-16.9 6.1-16.8 17.6v18.6zm60.6-14.7v2.5l-4 0.9v-3.4c0-9.1 0.2-13.4-10.4-11.9q-0.2-2.2-0.6-4.1c12.8-1.9 15 1.9 15 16zm-26.7-13.2q0.4 1.7 0.4 4.2c-5.9 2.5-8.2 4.4-8.1 13.1v5.3l-4 0.8v-6.2c0-12.8 4.9-14.8 11.7-17.2zm69 24.7v109l-22.1 8.1-111.1-22.2v-80.8l111.1-22.2zm-50.6 54.3h-31.1v24.1l31.1 4.5zm-34.2-25.4l-24.6 3.5v18.8h24.6zm0 25.4h-24.6v20.5l24.6 3.4zm34.2-30.1l-31.1 4.6v22.4h31.1z"/>
				<path id="&lt;Compound Path&gt;" fill-rule="evenodd" class="s2" d="m360.1 173.8q0 6.2-2.8 10.9-2.7 4.8-7.7 7.3-5 2.6-11.4 2.6h-10.8v-40.6h11.2q21.5 0 21.5 19.8zm-5 0.1q0-15.6-16.6-15.6h-6.3v32h6q8.1 0 12.5-4.3 4.4-4.3 4.4-12.1zm38.7 6.1q0 6.9-4 11.1-3.9 4.2-10.5 4.2-6.4 0-10.2-4.1-3.9-4.1-3.9-10.8 0-7.1 4-11.3 3.9-4.2 10.8-4.2 6.5 0 10.1 4 3.7 4.1 3.7 11.1zm-4.8 0.2q0-5.5-2.4-8.4-2.4-2.9-6.9-2.9-4.5 0-7.1 3-2.6 3-2.6 8.4 0 5.2 2.6 8.1 2.6 3 7.1 3 4.5 0 6.9-2.9 2.4-2.9 2.4-8.3zm48.5-14.6l-8.7 29h-4.8l-6-20.7q-0.3-1.1-0.5-2.7h-0.1q-0.1 1-0.6 2.6l-6.4 20.8h-4.7l-8.7-29h4.8l6 21.8q0.3 1.1 0.4 2.6h0.2q0.1-1.1 0.6-2.6l6.6-21.8h4.3l6 21.9q0.3 1.1 0.4 2.6h0.2q0.1-1.4 0.5-2.6l5.9-21.9zm29.5 29h-4.7v-16.5q0-9.2-6.7-9.2-3.5 0-5.8 2.6-2.3 2.6-2.3 6.6v16.5h-4.6v-29h4.6v4.8h0.2q3.2-5.5 9.5-5.5 4.7 0 7.3 3.1 2.5 3.1 2.5 8.9zm13.3 0h-4.6v-43h4.6zm35.8-14.5q0 6.9-4 11.1-3.9 4.2-10.5 4.2-6.4 0-10.2-4.1-3.9-4.1-3.9-10.8 0-7.2 4-11.4 3.9-4.1 10.8-4.1 6.5 0 10.1 4 3.7 4 3.7 11.1zm-4.8 0.1q0-5.4-2.4-8.4-2.4-2.9-6.9-2.9-4.5 0-7.1 3-2.6 3-2.6 8.4 0 5.2 2.6 8.2 2.6 2.9 7.1 2.9 4.5 0 6.9-2.9 2.4-2.9 2.4-8.3zm32.5 14.4h-4.7v-4.5h-0.1q-3 5.3-8.9 5.3-4.2 0-6.7-2.3-2.5-2.3-2.5-6.2 0-8 9.5-9.4l8.7-1.2q0-7.4-5.9-7.4-5.3 0-9.5 3.6v-4.8q1.3-1 4.4-1.9 3.1-0.8 5.5-0.8 10.2 0 10.2 10.8zm-4.7-14.7l-7 1q-3.6 0.5-5 1.8-1.5 1.1-1.5 3.8 0 2.2 1.6 3.5 1.5 1.3 4 1.4 3.4 0 5.7-2.5 2.2-2.4 2.2-6.1zm37.9 14.7h-4.6v-4.9h-0.1q-3.2 5.6-10 5.6-5.5 0-8.7-3.9-3.3-4-3.3-10.6 0-7.2 3.6-11.5 3.6-4.4 9.7-4.4 5.9 0 8.7 4.7h0.1v-17.9h4.6zm-4.6-13.1v-4.3q0-3.6-2.4-6-2.4-2.3-5.8-2.3-4.2 0-6.7 3.1-2.4 3.1-2.4 8.5 0 5 2.3 7.9 2.3 2.9 6.3 2.9 3.8 0 6.2-2.8 2.5-2.7 2.5-7zm41.9-25.7q-1.4-0.8-3.1-0.8-4.9 0-4.9 6.1v4.5h6.8v3.9h-6.8v25.1h-4.6v-25.1h-5v-3.9h5v-4.7q0-4.4 2.6-7.1 2.6-2.8 6.6-2.8 2.1 0 3.4 0.6zm18.9 14.5q-1.3-0.9-3.5-0.9-3.1 0-5 2.9-2 2.9-2 7.5v14.8h-4.6v-29h4.6v6h0.1q1-3 3-4.8 2-1.7 4.6-1.7 1.8 0 2.8 0.4zm30.6 9.7q0 6.9-3.9 11.1-3.9 4.2-10.5 4.2-6.4 0-10.3-4.1-3.8-4.1-3.8-10.8 0-7.2 3.9-11.3 4-4.2 10.9-4.2 6.4 0 10.1 4 3.6 4 3.6 11.1zm-4.7 0.1q0-5.4-2.4-8.3-2.5-3-7-3-4.4 0-7 3-2.6 3-2.7 8.4 0.1 5.3 2.7 8.2 2.6 2.9 7 2.9 4.6 0 7-2.9 2.4-2.9 2.4-8.3zm53.1 14.5h-4.7v-16.7q0-4.8-1.5-6.9-1.4-2.2-5-2.2-2.9 0-5 2.8-2.1 2.7-2.1 6.4v16.6h-4.6v-17.2q0-8.6-6.6-8.6-3.1 0-5.1 2.6-1.9 2.6-1.9 6.6v16.6h-4.7v-29h4.7v4.6h0.1q3.1-5.3 9-5.3 2.8 0 5 1.6 2.3 1.5 3.2 4.4 3.2-6 9.6-6 9.6 0 9.6 11.8z"/>
				<path id="&lt;Compound Path&gt;" fill-rule="evenodd" class="s2" d="m401.7 220.7l-17.1 60.4h-8.3l-12.4-44.2q-0.7-2.5-0.9-6.1h-0.2q-0.4 3.1-1.2 6l-12.5 44.3h-8.2l-17.7-60.4h7.8l12.9 46.3q0.8 3.1 1 6.1h0.2q0.2-2.6 1.2-6.1l13.5-46.3h6.8l12.8 46.7q0.7 2.6 1 5.6h0.1q0.2-2.2 1.2-5.8l12.3-46.5zm13.7 3.1q0 1.9-1.3 3.2-1.4 1.3-3.2 1.3-1.9 0-3.2-1.3-1.3-1.2-1.3-3.2 0-1.9 1.3-3.2 1.3-1.3 3.2-1.3 1.9 0 3.2 1.3 1.3 1.3 1.3 3.2zm-1.1 57.3h-7v-43.2h7zm46.3 0h-7v-24.6q0-13.7-10-13.7-5.1 0-8.5 3.9-3.5 3.8-3.5 9.8v24.6h-6.9v-43.1h6.9v7.1h0.2q4.9-8.2 14.2-8.2 7.1 0 10.8 4.7 3.8 4.6 3.8 13.1zm47.9 0h-6.9v-7.3h-0.1q-4.8 8.4-14.9 8.4-8.2 0-13-5.9-4.9-5.9-4.9-15.7 0-10.7 5.4-17.2 5.4-6.5 14.4-6.5 8.9 0 13 7h0.1v-26.7h6.9zm-6.9-19.5v-6.4q0-5.3-3.5-8.9-3.6-3.5-8.7-3.5-6.2 0-9.9 4.6-3.7 4.6-3.7 12.8 0 7.4 3.5 11.7 3.4 4.4 9.3 4.3 5.7 0.1 9.4-4.1 3.6-4.1 3.6-10.5zm58-2.2q0 10.2-5.9 16.5-5.8 6.3-15.6 6.3-9.6 0-15.3-6.1-5.7-6.1-5.7-16.1 0-10.7 5.9-16.9 5.8-6.2 16.1-6.2 9.6 0 15 6 5.5 6 5.5 16.5zm-7.1 0.2q0-8.1-3.6-12.5-3.6-4.3-10.3-4.3-6.7 0-10.5 4.4-3.9 4.5-3.9 12.6 0 7.7 3.9 12.1 3.9 4.4 10.5 4.3 6.7 0 10.3-4.2 3.6-4.3 3.6-12.4zm70-21.7l-12.9 43.2h-7.2l-8.9-30.9q-0.4-1.6-0.7-4h-0.1q-0.2 1.5-0.9 3.9l-9.7 31h-6.9l-13-43.2h7.2l8.9 32.5q0.5 1.7 0.6 3.9h0.4q0-1.6 0.8-4l9.9-32.4h6.3l9 32.6q0.4 1.6 0.6 3.9h0.3q0.1-2.1 0.7-3.9l8.8-32.6zm29.4 31.6q0 5.7-4.3 9.2-4.3 3.5-11.5 3.5-6.1 0-10.7-2.7v-7.4q5.1 4.2 11.2 4.1 8.3 0.1 8.3-6 0-2.4-1.6-4-1.7-1.5-7.3-4.1-5.8-2.4-8.1-5.3-2.4-2.8-2.4-7.4 0-5.3 4.3-8.9 4.3-3.6 10.9-3.6 5.1 0 9.3 2v7q-4.3-3.1-9.8-3.1-3.4 0-5.5 1.7-2.1 1.7-2.1 4.3 0 2.9 1.6 4.4 1.6 1.6 6.6 3.7 6.2 2.6 8.7 5.5 2.4 2.8 2.4 7.1z"/>
				<path id="&lt;Compound Path&gt;" fill-rule="evenodd" class="s2" d="m713.5 265.9q0 7.6-5.4 11.9-5.4 4.4-14.7 4.4-3.4 0-7.6-1.1-4.2-1.2-6-2.4v-8.4q2.6 2.4 6.8 3.9 4.1 1.6 7.8 1.6 11.6 0 11.6-9.1 0-3.8-2.5-6.5-2.5-2.7-10.2-7.2-7.4-4.2-10.4-8-3-3.8-3-9.2 0-7.2 5.3-11.7 5.4-4.4 13.9-4.4 8.1 0 11.8 2.1v7.9q-4.7-3.7-12.2-3.7-5 0-8.2 2.5-3.2 2.5-3.2 6.7 0 3 0.9 4.8 1 1.8 3.2 3.6 2.3 1.7 7.7 4.7 8 4.5 11.2 8.5 3.2 3.9 3.2 9.1zm28.5 14.8q-2.4 1.4-6.5 1.4-11.3 0-11.3-12.7v-25.6h-7.4v-5.8h7.4v-10.6l7-2.2v12.8h10.8v5.8h-10.8v24.4q0 4.3 1.4 6.2 1.5 1.8 5 1.8 2.5 0 4.4-1.4zm47.7-21.3q0 10.3-5.8 16.5-5.9 6.3-15.7 6.3-9.6 0-15.3-6.1-5.7-6.1-5.7-16.1 0-10.7 5.9-16.9 5.8-6.2 16.1-6.2 9.6 0 15.1 6 5.4 6 5.4 16.5zm-7.1 0.2q0-8.1-3.6-12.5-3.6-4.3-10.3-4.3-6.7 0-10.5 4.4-3.9 4.5-3.9 12.6 0 7.8 3.9 12.1 3.9 4.4 10.5 4.4 6.7 0 10.3-4.3 3.6-4.3 3.6-12.4zm36.9-14.7q-1.9-1.3-5.3-1.3-4.6 0-7.5 4.3-2.8 4.3-2.8 11.2v22h-6.9v-43.2h6.9v8.9h0.1q1.5-4.4 4.5-7 3-2.6 6.8-2.6 2.7 0 4.2 0.6zm41.6 16.3h-30.5q0.2 7.3 3.9 11.2 3.7 3.8 10.2 3.8 7.4 0 13.4-4.7v6.4q-5.7 4.2-15 4.2-9.3 0-14.4-6-5.2-5.9-5.2-16.5 0-6.4 2.6-11.6 2.6-5.4 7.1-8.2 4.6-3 10.1-3 8.4 0 13.1 5.5 4.7 5.5 4.7 15.3zm-7.1-5.9q0-6-2.9-9.3-2.8-3.3-7.9-3.3-4.8 0-8.2 3.5-3.4 3.4-4.3 9.1z"/>
			</g>
		</g>
	</g>
</svg>