<svg version="1.2" xmlns="http://www.w3.org/2000/svg" viewBox="0 0 921 311" width="90" height="30">
	<title>app-store-google-play-seeklogo</title>
	<defs>
		<linearGradient id="g1" x1="225.5" y1="189.1" x2="69.9" y2="189.1" gradientUnits="userSpaceOnUse">
			<stop offset="0" stop-color="#fbe007"/>
			<stop offset="1" stop-color="#f89b1b"/>
		</linearGradient>
		<linearGradient id="g2" x1="228.9" y1="193.5" x2="55.5" y2="366.9" gradientUnits="userSpaceOnUse">
			<stop offset="0" stop-color="#ee4547"/>
			<stop offset="1" stop-color="#c6146c"/>
		</linearGradient>
		<linearGradient id="g3" x1="54.7" y1="-44.4" x2="196.3" y2="97.2" gradientUnits="userSpaceOnUse">
			<stop offset="0" stop-color="#299f6f"/>
			<stop offset="1" stop-color="#73c068"/>
		</linearGradient>
	</defs>
	<style>
		.s0 { fill: #000001 } 
		.s1 { fill: #a6a9ab } 
		.s2 { fill: #fefefe } 
		.s3 { fill: #59c9f3 } 
		.s4 { fill: url(#g1) } 
		.s5 { fill: url(#g2) } 
		.s6 { fill: url(#g3) } 
	</style>
	<g id="_Artboards_">
	</g>
	<g id="Google Play">
		<g id="&lt;Group&gt;">
			<g id="&lt;Group&gt;">
				<path id="&lt;Path&gt;" class="s0" d="m862.4 285.8h-804.9c-16.3 0-29.6-13.2-29.6-29.5v-190.7c0-16.4 13.3-29.6 29.6-29.6h804.9c16.3 0 29.5 13.2 29.5 29.6v190.7c0 16.3-13.2 29.5-29.5 29.5z"/>
				<path id="&lt;Path&gt; copy" class="s0" d="m862.4 285.8h-804.9c-16.3 0-29.6-13.2-29.6-29.5v-190.7c0-16.4 13.3-29.6 29.6-29.6h804.9c16.3 0 29.5 13.2 29.5 29.6v190.7c0 16.3-13.2 29.5-29.5 29.5z"/>
				<path id="&lt;Path&gt; copy 2" class="s0" d="m862.4 285.8h-804.9c-16.3 0-29.6-13.2-29.6-29.5v-190.7c0-16.4 13.3-29.6 29.6-29.6h804.9c16.3 0 29.5 13.2 29.5 29.6v190.7c0 16.3-13.2 29.5-29.5 29.5z"/>
				<path id="&lt;Compound Path&gt;" fill-rule="evenodd" class="s1" d="m862.4 289h-804.9c-18.1 0-32.8-14.7-32.8-32.8v-190.6c0-18.1 14.7-32.8 32.8-32.8h804.9c18.1 0 32.8 14.7 32.8 32.8v190.6c0 18.1-14.7 32.8-32.8 32.8zm-804.9-249.7c-14.5 0-26.3 11.8-26.3 26.3v190.6c0 14.5 11.8 26.3 26.3 26.3h804.9c14.5 0 26.3-11.8 26.3-26.3v-190.6c0-14.5-11.8-26.3-26.3-26.3z"/>
			</g>
			<g id="&lt;Group&gt;">
				<path id="&lt;Compound Path&gt;" fill-rule="evenodd" class="s2" d="m491.3 200.3c0 15.7-12.4 27.3-27.5 27.3-15.1 0-27.5-11.6-27.5-27.3 0-15.9 12.4-27.4 27.5-27.4 15.1 0 27.5 11.5 27.5 27.4zm-12 0c0-9.9-7.2-16.6-15.5-16.6-8.3 0-15.4 6.7-15.4 16.6 0 9.7 7.1 16.6 15.4 16.6 8.3 0 15.5-6.9 15.5-16.6zm-47.9 0c0 15.7-12.4 27.3-27.5 27.3-15.1 0-27.5-11.6-27.5-27.3 0-15.9 12.4-27.4 27.5-27.4 15.1 0 27.5 11.5 27.5 27.4zm-12.1 0c0-9.9-7.1-16.6-15.4-16.6-8.3 0-15.4 6.7-15.4 16.6 0 9.7 7.1 16.6 15.4 16.6 8.3 0 15.4-6.9 15.4-16.6zm-47.6-19c0.4 2.1 0.6 4.6 0.6 7.3 0 8.7-2.4 19.4-10 27.1-7.5 7.8-17 11.9-29.7 11.9-23.4 0-43.1-19-43.1-42.5 0-23.4 19.7-42.5 43.1-42.5 13 0 22.2 5.1 29.1 11.8l-8.1 8.1c-5-4.6-11.8-8.2-21-8.2-17.1 0-30.5 13.7-30.5 30.8 0 17.1 13.4 30.9 30.5 30.9 11.1 0 17.4-4.4 21.5-8.5 3.3-3.3 5.5-8.1 6.3-14.6h-27.8v-11.6zm253.7 12.1l-36.6 15.2c2.8 5.5 7.1 8.3 13.3 8.3 6.1 0 10.3-3 13.4-7.6l9.4 6.2c-3 4.5-10.3 12.1-22.8 12.1-15.6 0-27.2-12-27.2-27.3 0-16.3 11.7-27.4 25.8-27.4 14.2 0 21.2 11.3 23.4 17.4zm-14.1-4.1c-1.3-3.4-5.3-5.8-10.1-5.8-6.1 0-14.6 5.4-14.3 15.9zm-54.2-43.7h12v80.4h-12zm-19.7 29h11.4v49.2c0 20.2-11.9 28.5-26 28.5-13.3 0-21.3-8.9-24.3-16.2l10.5-4.3c1.8 4.4 6.4 9.7 13.8 9.7 9 0 14.6-5.6 14.6-16.1v-3.9h-0.4c-2.7 3.3-7.9 6.2-14.4 6.2-13.7 0-26.3-11.9-26.3-27.2 0-15.5 12.6-27.5 26.3-27.5 6.5 0 11.7 2.9 14.4 6.1h0.4zm0.8 25.8c0-9.6-6.4-16.7-14.6-16.7-8.3 0-15.2 7.1-15.2 16.7 0 9.5 6.9 16.5 15.2 16.5 8.2 0 14.6-7 14.6-16.5zm168.6-29.8c0 15.3-13 24.9-26.3 24.9h-16.8v30.5h-12v-80.4h28.8c13.3 0 26.3 9.6 26.3 25zm-12 0c0-6.4-5.1-13.8-14-13.8h-17.1v27.5h17.1c8.9 0 14-7.5 14-13.7zm84.6 24.4v30.9h-11.6v-6.2h-0.4c-2.8 4.2-7.3 7.8-15.3 7.8-10.6 0-20-6.9-20-17.7 0-11.8 11.7-18.1 23.2-18.1 5.7 0 10.3 1.9 12.5 3.1v-0.8c-0.1-6.6-6.4-10.3-12.6-10.3-4.5 0-8.7 1.4-11 5.9l-10.7-4.5c3.8-8.5 12.8-12.3 21.4-12.3 13.8 0 24.5 8 24.5 22.2zm-11.6 9.2c-3.2-1.6-5.7-2.7-11-2.7-5.9 0-12.7 2.3-12.7 8.5 0 4.9 5.5 6.9 9.4 6.9 6.9 0 13.3-5.3 14.3-12.7zm67.1-29.6l-33 75.8h-12.5l12.2-27.1-21.4-48.7h12.9l14.3 34.8h0.4l13.8-34.8zm-121.5-29h12v80.4h-12z"/>
				<g id="&lt;Group&gt;">
					<path id="&lt;Path&gt;" class="s3" d="m92.6 81.5c-1.9 2-3 5.1-3 9.1v142.1c0 4 1.1 7.1 3 9.1l0.5 0.4 79.6-79.6v-1-0.9l-79.6-79.6z"/>
					<path id="&lt;Path&gt;" class="s4" d="m199.3 189.1l-26.6-26.5v-1-0.9l26.6-26.5 0.6 0.3 31.4 17.9c9 5.1 9 13.4 0 18.5l-31.4 17.9z"/>
					<path id="&lt;Path&gt;" class="s5" d="m199.9 188.8l-27.2-27.2-80.1 80.2c3 3.1 7.8 3.5 13.4 0.4z"/>
					<path id="&lt;Path&gt;" class="s6" d="m199.9 134.5l-93.9-53.4c-5.6-3.1-10.4-2.7-13.4 0.4l80.1 80.1z"/>
				</g>
			</g>
			<g id="&lt;Group&gt;">
				<path id="&lt;Compound Path&gt;" class="s2" d="m320.4 86.1c-2.4-2.2-5.6-3.5-9.1-3.5-7.9 0-14 6.5-14 14.5 0 8 6.1 14.5 14 14.5 6.8 0 11.7-3.9 12.1-10.2h-10.8v-4.4h16.6c0 13.3-7.1 19.5-17.9 19.5-10.8 0-19.1-8.7-19.1-19.4 0-10.7 8.3-19.4 19.1-19.4 5 0 9.5 1.9 12.8 5z"/>
				<path id="&lt;Compound Path&gt;" class="s2" d="m358.6 78.1v4.8h-17.3v12.1h15.1v4.8h-15.1v11.4h17.8v4.8h-22.9v-37.9z"/>
				<path id="&lt;Compound Path&gt;" class="s2" d="m391.7 78.1v4.8h-11.5v33.1h-5.1v-33.1h-11.5v-4.8z"/>
				<path id="&lt;Compound Path&gt;" class="s2" d="m416.2 78.1v37.9h-5.1v-37.9z"/>
				<path id="&lt;Compound Path&gt;" class="s2" d="m451.1 78.1v4.8h-11.5v33.1h-5.2v-33.1h-11.5v-4.8z"/>
				<path id="&lt;Compound Path&gt;" fill-rule="evenodd" class="s2" d="m487.1 77.7c10.8 0 19.2 8.7 19.2 19.4 0 10.7-8.4 19.4-19.2 19.4-10.8 0-19.1-8.7-19.1-19.4 0-10.7 8.3-19.4 19.1-19.4zm0 33.9c8 0 14.1-6.5 14.1-14.5 0-8-6.1-14.5-14.1-14.5-7.9 0-14 6.5-14 14.5 0 8 6.1 14.5 14 14.5z"/>
				<path id="&lt;Compound Path&gt;" class="s2" d="m536.5 116l-17.2-28.5v28.5h-5.1v-37.9h5l17.1 28.3v-28.3h5.1v37.9z"/>
			</g>
		</g>
	</g>
	<g id="App Store">
		<g id="&lt;Group&gt;">
			<g id="&lt;Group&gt;">
				<path id="&lt;Path&gt;" class="s0" d="m862.4-21.4h-804.9c-16.3 0-29.6-13.2-29.6-29.5v-190.7c0-16.3 13.3-29.5 29.6-29.5h804.9c16.3 0 29.5 13.2 29.5 29.5v190.7c0 16.3-13.2 29.5-29.5 29.5z"/>
				<path id="&lt;Compound Path&gt;" fill-rule="evenodd" class="s1" d="m862.4-18.2h-804.9c-18.1 0-32.8-14.6-32.8-32.7v-190.7c0-18.1 14.7-32.8 32.8-32.8h804.9c18.1 0 32.8 14.7 32.8 32.8v190.7c0 18.1-14.7 32.7-32.8 32.7zm-804.9-249.7c-14.5 0-26.3 11.8-26.3 26.3v190.7c0 14.5 11.8 26.3 26.3 26.3h804.9c14.5 0 26.3-11.8 26.3-26.3v-190.7c0-14.5-11.8-26.3-26.3-26.3z"/>
			</g>
			<g id="&lt;Group&gt;">
				<path id="&lt;Compound Path&gt;" fill-rule="evenodd" class="s2" d="m314.5-201.5l-3.6 11.9h-7.9l13.4-42.1h9.8l13.7 42.1h-8.2l-3.8-11.9zm12-5.8l-3.3-10.4c-0.8-2.5-1.5-5.4-2.1-7.8h-0.1c-0.7 2.4-1.3 5.3-2 7.8l-3.3 10.4z"/>
				<path id="&lt;Compound Path&gt;" class="s2" d="m351.4-220l4.9 15.4c0.9 2.7 1.5 5.2 2.1 7.7h0.2c0.5-2.5 1.2-4.9 2-7.7l4.9-15.4h8.1l-11.7 30.4h-7.5l-11.3-30.4z"/>
				<path id="&lt;Compound Path&gt;" fill-rule="evenodd" class="s2" d="m404.2-196.9c0 2.8 0.1 5.4 0.5 7.3h-6.9l-0.6-3.3h-0.2c-1.8 2.3-5 4-9 4-6.1 0-9.5-4.4-9.5-9 0-7.7 6.8-11.6 18-11.5v-0.5c0-2-0.8-5.3-6.2-5.3-2.9 0-6.1 0.9-8.1 2.2l-1.5-5c2.2-1.4 6.2-2.7 11-2.7 9.7 0 12.5 6.2 12.5 12.9zm-7.5-7.6c-5.4 0-10.6 1.1-10.6 5.7 0 3 1.9 4.4 4.4 4.4 3.1 0 5.3-2 6-4.2 0.2-0.6 0.2-1.1 0.2-1.7z"/>
				<path id="&lt;Compound Path&gt;" class="s2" d="m418.9-224.4c-2.6 0-4.3-1.8-4.3-4.1 0-2.3 1.8-4.2 4.3-4.2 2.7 0 4.3 1.9 4.3 4.2 0 2.3-1.6 4.1-4.3 4.1zm-3.8 34.8v-30.4h7.7v30.4z"/>
				<path id="&lt;Compound Path&gt;" class="s2" d="m433.8-234h7.7v44.4h-7.7z"/>
				<path id="&lt;Compound Path&gt;" fill-rule="evenodd" class="s2" d="m476.2-196.9c0 2.8 0.1 5.4 0.5 7.3h-6.9l-0.6-3.3h-0.2c-1.8 2.3-5 4-9 4-6.1 0-9.5-4.4-9.5-9 0-7.7 6.8-11.6 18-11.5v-0.5c0-2-0.8-5.3-6.2-5.3-3 0-6.1 0.9-8.2 2.2l-1.5-5c2.3-1.4 6.2-2.7 11-2.7 9.8 0 12.6 6.2 12.6 12.9zm-7.5-7.6c-5.4 0-10.6 1.1-10.6 5.7 0 3 1.9 4.4 4.3 4.4 3.2 0 5.4-2 6.1-4.2 0.2-0.6 0.2-1.1 0.2-1.7z"/>
				<path id="&lt;Compound Path&gt;" fill-rule="evenodd" class="s2" d="m487-234h7.7v18.2h0.1c1.9-2.9 5.2-4.9 9.8-4.9 7.4 0 12.7 6.2 12.7 15.5 0 10.9-7 16.3-13.8 16.3-4 0-7.5-1.5-9.7-5.2h-0.1l-0.4 4.5h-6.5c0.1-2 0.2-5.4 0.2-8.5zm7.7 31.9c0 0.6 0.1 1.2 0.2 1.8 0.8 3.1 3.5 5.4 6.8 5.4 4.8 0 7.8-3.9 7.8-10 0-5.4-2.6-9.8-7.7-9.8-3.1 0-6 2.3-6.8 5.6-0.2 0.6-0.3 1.3-0.3 2z"/>
				<path id="&lt;Compound Path&gt;" class="s2" d="m526.3-234h7.7v44.4h-7.7z"/>
				<path id="&lt;Compound Path&gt;" fill-rule="evenodd" class="s2" d="m550.5-202.6c0.2 5.5 4.5 7.8 9.4 7.8 3.5 0 6-0.5 8.4-1.3l1.1 5.2c-2.6 1.1-6.2 1.9-10.6 1.9-9.8 0-15.6-6-15.6-15.3 0-8.4 5.1-16.4 14.8-16.4 9.9 0 13.1 8.1 13.1 14.8 0 1.5-0.1 2.6-0.2 3.3zm13.3-5.4c0.1-2.8-1.1-7.4-6.3-7.4-4.7 0-6.7 4.3-7 7.4z"/>
				<path id="&lt;Compound Path&gt;" fill-rule="evenodd" class="s2" d="m609-188.9c-8.5 0-15.2-5.9-15.2-15.7 0-10 6.5-16.1 15.7-16.1 9.1 0 15.1 6.4 15.1 15.6 0 11.2-7.8 16.2-15.5 16.2zm0.2-5.5c4.4 0 7.5-4.3 7.5-10.5 0-4.7-2.2-10.2-7.4-10.2-5.4 0-7.6 5.3-7.6 10.4 0 5.8 2.9 10.3 7.5 10.3z"/>
				<path id="&lt;Compound Path&gt;" class="s2" d="m633.7-210.9c0-3.5-0.2-6.5-0.3-9.1h6.7l0.4 4.6h0.2c1.3-2.4 4.6-5.3 9.7-5.3 5.3 0 10.8 3.5 10.8 13.1v18h-7.7v-17.1c0-4.4-1.6-7.7-5.8-7.7-3 0-5.2 2.2-6 4.5-0.2 0.6-0.4 1.5-0.4 2.4v17.9h-7.6z"/>
				<path id="&lt;Compound Path&gt;" class="s2" d="m696.6-227.8v7.8h7.3v5.8h-7.3v13.3c0 3.8 1 5.6 3.9 5.6 1.4 0 2.1 0 3-0.3l0.1 5.8c-1.1 0.5-3.1 0.8-5.5 0.8-2.9 0-5.2-0.9-6.6-2.5-1.7-1.7-2.5-4.5-2.5-8.5v-14.2h-4.3v-5.8h4.3v-5.7z"/>
				<path id="&lt;Compound Path&gt;" class="s2" d="m712.4-234h7.7v18.1h0.2c0.9-1.4 2.2-2.6 3.8-3.4 1.5-0.9 3.3-1.4 5.3-1.4 5.1 0 10.6 3.5 10.6 13.2v17.9h-7.7v-17.1c0-4.4-1.6-7.7-5.9-7.7-3 0-5.1 2-6 4.3-0.2 0.7-0.3 1.5-0.3 2.3v18.2h-7.7z"/>
				<path id="&lt;Compound Path&gt;" fill-rule="evenodd" class="s2" d="m756.3-202.6c0.2 5.5 4.5 7.8 9.4 7.8 3.6 0 6.1-0.5 8.4-1.3l1.1 5.2c-2.6 1.1-6.2 1.9-10.6 1.9-9.8 0-15.6-6-15.6-15.3 0-8.4 5.1-16.4 14.8-16.4 9.9 0 13.1 8.1 13.1 14.8 0 1.5-0.1 2.6-0.2 3.3zm13.3-5.4c0.1-2.8-1.1-7.4-6.3-7.4-4.7 0-6.7 4.3-7 7.4z"/>
			</g>
			<g id="&lt;Group&gt;">
				<g id="&lt;Group&gt;">
					<path id="&lt;Path&gt;" class="s2" d="m219-148.8c-0.2-20.8 17-30.9 17.8-31.4-9.7-14.2-24.9-16.2-30.2-16.3-12.7-1.4-25.1 7.6-31.5 7.6-6.6 0-16.6-7.5-27.3-7.3-13.9 0.2-26.8 8.2-33.9 20.7-14.7 25.3-3.7 62.6 10.3 83.1 7 10 15.2 21.2 25.9 20.8 10.5-0.4 14.5-6.7 27.1-6.7 12.6 0 16.3 6.7 27.2 6.5 11.3-0.2 18.4-10.1 25.2-20.2 8.1-11.5 11.3-22.9 11.5-23.4-0.3-0.1-21.9-8.4-22.1-33.4z"/>
					<path id="&lt;Path&gt;" class="s2" d="m198.3-210c5.6-7.1 9.5-16.7 8.4-26.4-8.2 0.3-18.4 5.6-24.3 12.5-5.2 6.1-9.8 16.1-8.6 25.5 9.2 0.7 18.6-4.7 24.5-11.6z"/>
				</g>
				<g id="&lt;Group&gt;">
					<path id="&lt;Compound Path&gt;" fill-rule="evenodd" class="s2" d="m370.7-73.2h-14.6l-8-25.2h-27.8l-7.7 25.2h-14.2l27.6-85.8h17zm-25-35.7l-7.3-22.4q-1.1-3.5-4.3-16.2h-0.3q-1.2 5.5-4 16.2l-7.2 22.4z"/>
					<path id="&lt;Compound Path&gt;" fill-rule="evenodd" class="s2" d="m441.7-104.9q0 15.8-8.5 24.9-7.6 8.2-18.9 8.2-12.2 0-17.6-8.8h-0.2v32.6h-13.8v-66.7q0-9.9-0.5-20.4h12.1l0.8 9.8h0.2q6.9-11 20.9-11 10.9 0 18.2 8.6 7.3 8.7 7.3 22.8zm-13.9 0.5q-0.1-9-4.1-14.9-4.5-6.1-12-6.1-5.1 0-9.2 3.4-4.1 3.4-5.4 8.8-0.6 2.6-0.6 4.2v10.3q0 6.8 4.1 11.4 4.1 4.7 10.7 4.6 7.8 0.1 12.1-5.9 4.4-6 4.4-15.8z"/>
					<path id="&lt;Compound Path&gt;" fill-rule="evenodd" class="s2" d="m512.9-104.9q0 15.8-8.6 24.9-7.6 8.2-18.9 8.2-12.2 0-17.6-8.8h-0.2v32.6h-13.8v-66.7q0-9.9-0.5-20.4h12.1l0.8 9.8h0.2q6.9-11 20.9-11 10.9 0 18.3 8.6 7.3 8.7 7.3 22.8zm-14 0.5q0-9-4.1-14.9-4.5-6.1-12-6.1-5.1 0-9.2 3.4-4.1 3.4-5.4 8.8-0.6 2.6-0.6 4.2v10.3q0 6.8 4.1 11.4 4.1 4.7 10.8 4.6 7.7 0.1 12-5.9 4.4-6 4.4-15.8z"/>
					<path id="&lt;Path&gt;" class="s2" d="m592.4-97.3q0 11-7.6 17.8-8.4 7.5-23.4 7.5-13.8 0-22.2-5.3l3.2-11.5q9 5.5 19.8 5.5 7.8 0 12.1-3.5 4.3-3.5 4.3-9.4 0-5.2-3.5-8.7-3.6-3.6-11.9-6.7-22.5-8.4-22.5-24.6 0-10.5 7.9-17.3 7.9-6.8 21-6.8 11.7 0 19.5 4.1l-3.5 11.2q-7.2-3.9-16.4-3.9-7.2 0-11.3 3.5-3.4 3.2-3.4 7.8 0 5.1 3.9 8.4 3.4 3 12.5 6.6 11 4.5 16.3 10.4 5.2 6 5.2 14.9z"/>
					<path id="&lt;Path&gt;" class="s2" d="m637.8-124.8h-15.1v30.1q0 11.4 8 11.4 3.6 0 6.1-0.6l0.3 10.4q-4 1.5-10.6 1.5-8.2 0-12.8-4.9-4.5-5-4.5-16.7v-31.2h-9.1v-10.3h9.1v-11.3l13.5-4.1v15.4h15.1z"/>
					<path id="&lt;Compound Path&gt;" fill-rule="evenodd" class="s2" d="m706.1-104.7q0 14.3-8.1 23.5-8.6 9.4-22.7 9.4-13.6 0-21.7-9.1-8-9-8-22.7 0-14.4 8.3-23.6 8.3-9.1 22.4-9.1 13.7 0 21.9 9 7.9 8.8 7.9 22.6zm-14.2 0.5q0-8.6-3.7-14.7-4.3-7.4-12.4-7.4-8.2 0-12.6 7.4-3.6 6.1-3.6 15 0 8.5 3.6 14.6 4.5 7.4 12.5 7.4 7.9 0 12.3-7.5 3.9-6.3 3.9-14.8z"/>
					<path id="&lt;Path&gt;" class="s2" d="m750.8-123q-2.1-0.4-4.4-0.4-7.2 0-11.2 5.5-3.4 4.9-3.4 12.2v32.5h-13.7l0.1-42.4q0-10.7-0.5-19.5h12l0.5 11.9h0.3q2.2-6.1 6.9-9.8 4.6-3.3 9.9-3.3 1.9 0 3.5 0.2z"/>
					<path id="&lt;Compound Path&gt;" fill-rule="evenodd" class="s2" d="m812.2-107.1q0 3.7-0.5 6.3h-41.2q0.2 9.1 6 14 5.2 4.3 13.5 4.3 9.1 0 16.6-2.9l2.2 9.5q-8.8 3.8-20.8 3.8-14.3 0-22.5-8.4-8.2-8.5-8.2-22.8-0.1-13.9 7.6-23.2 8-10 21.6-10 13.4 0 20.3 10 5.4 7.8 5.4 19.4zm-13.1-3.5q0.1-6.1-2.7-10.6-3.5-5.7-10.9-5.7-6.7 0-10.9 5.6-3.5 4.4-4.1 10.7z"/>
				</g>
			</g>
		</g>
	</g>
</svg>